<svg id="Layer_1" data-name="Layer 1" xmlns="http://www.w3.org/2000/svg" viewBox="0 0 720 348"><defs><style>.cls-1{fill:#203351;}</style></defs><path class="cls-1" d="M129.85,78.12H157a35.87,35.87,0,0,1,11.39,1.57,21.79,21.79,0,0,1,7.59,4.17,15.13,15.13,0,0,1,4.23,6,19.77,19.77,0,0,1,1.3,7.11,14.34,14.34,0,0,1-1.24,6.13,18.85,18.85,0,0,1-2.93,4.55,14.41,14.41,0,0,1-3.58,3,12.67,12.67,0,0,1-3.2,1.41,24.27,24.27,0,0,1,4.5,1.58,17.76,17.76,0,0,1,4.83,3.25,18,18,0,0,1,3.85,5.31,17.06,17.06,0,0,1,1.57,7.54,20.71,20.71,0,0,1-2,9.55,17,17,0,0,1-5.64,6.39,24.68,24.68,0,0,1-8.89,3.64A55.75,55.75,0,0,1,157,150.46H129.85Zm25.6,29a15.34,15.34,0,0,0,3.63-.44,9.41,9.41,0,0,0,3.14-1.36,7,7,0,0,0,2.23-2.49,7.85,7.85,0,0,0,.87-3.85,8.11,8.11,0,0,0-.87-4,6.86,6.86,0,0,0-2.28-2.49,9.39,9.39,0,0,0-3.2-1.31,17.15,17.15,0,0,0-3.52-.38h-9.66v16.28Zm1,30.8a30,30,0,0,0,3.9-.28,11.37,11.37,0,0,0,4-1.24,8.49,8.49,0,0,0,3.09-2.82,9,9,0,0,0,1.25-5.1,8.61,8.61,0,0,0-1.2-4.77,8.52,8.52,0,0,0-3-2.88,13,13,0,0,0-4-1.41,23.61,23.61,0,0,0-4-.38H145.79v18.88Z"/><path class="cls-1" d="M266.94,78.12h26.9A31.49,31.49,0,0,1,304.9,79.9a22.8,22.8,0,0,1,8,4.89A19.62,19.62,0,0,1,317.65,92a24.63,24.63,0,0,1,1.57,8.78,23.84,23.84,0,0,1-3.09,12.31,22.75,22.75,0,0,1-8.74,8.41l16.06,29h-18L292,123.88h-9.11v26.58H266.94Zm26,32.64a9.9,9.9,0,0,0,7.16-16.59A9.66,9.66,0,0,0,293,91.56H282.88v19.2Z"/><path class="cls-1" d="M403.27,78.12h16.38V107l24.19-28.85h19L438,106.31l28.2,44.15H446.33L427,118.9l-7.38,8.24v23.32H403.27Z"/><path class="cls-1" d="M544.7,78.12h15.62l31.35,47v-47h16.16v72.34H593l-32.1-47.83v47.83H544.7Z"/><path class="cls-1" d="M68.14,246.9A32.44,32.44,0,0,0,71.45,250a27.53,27.53,0,0,0,4.23,2.88A24.4,24.4,0,0,0,80.77,255a21,21,0,0,0,5.91.82,12.74,12.74,0,0,0,3.69-.55,11.76,11.76,0,0,0,3.36-1.57,8.54,8.54,0,0,0,2.45-2.49,6.13,6.13,0,0,0,.92-3.31,6.89,6.89,0,0,0-3.91-6.24q-3.9-2.22-12.36-4.39a32.58,32.58,0,0,1-7.65-2.82A23.87,23.87,0,0,1,67.11,230a18.82,18.82,0,0,1-4-6,19.19,19.19,0,0,1-1.41-7.49A22.45,22.45,0,0,1,63.37,208a19.83,19.83,0,0,1,4.93-7.11A23.75,23.75,0,0,1,76.54,196a34.31,34.31,0,0,1,11.66-1.79A37.58,37.58,0,0,1,98,195.33a35.74,35.74,0,0,1,7.22,2.71,25.47,25.47,0,0,1,4.88,3.25c1.26,1.13,2.22,2,2.87,2.66l-9.43,10.42c-.8-.66-1.72-1.36-2.77-2.12a25.21,25.21,0,0,0-3.52-2.11,22.88,22.88,0,0,0-4.29-1.63,18,18,0,0,0-4.93-.65,11.11,11.11,0,0,0-3.42.54,12,12,0,0,0-3,1.46A8,8,0,0,0,79.36,212a4.8,4.8,0,0,0-.81,2.66q0,3.69,3.91,6a37.94,37.94,0,0,0,10.73,3.79,47.54,47.54,0,0,1,7.86,2.66,25.76,25.76,0,0,1,6.89,4.39,20.25,20.25,0,0,1,4.88,6.67,22.61,22.61,0,0,1,1.85,9.6,18.94,18.94,0,0,1-2.17,9,22.92,22.92,0,0,1-5.91,7.16,27.66,27.66,0,0,1-8.79,4.72,34.25,34.25,0,0,1-10.9,1.68,44.25,44.25,0,0,1-9.87-1,40.34,40.34,0,0,1-8-2.71,36.64,36.64,0,0,1-6.46-3.85,35.55,35.55,0,0,1-4.93-4.45Z"/><path class="cls-1" d="M197.31,196.14h26.36a30.33,30.33,0,0,1,11.49,2,22.85,22.85,0,0,1,7.87,5.15,19.86,19.86,0,0,1,4.55,7.43,26.53,26.53,0,0,1,1.47,8.78,24.41,24.41,0,0,1-2,10.25,20.9,20.9,0,0,1-5.42,7.32,23.57,23.57,0,0,1-7.87,4.45,28.68,28.68,0,0,1-9.32,1.52H213.25v25.49H197.31Zm25.49,33.63A9.5,9.5,0,0,0,230,227a10,10,0,0,0,2.66-7.21,10.38,10.38,0,0,0-2.71-7.43,9.51,9.51,0,0,0-7.27-2.88h-9.44v20.29Z"/><path class="cls-1" d="M365.31,270.33a37.56,37.56,0,0,1-14.91-2.93,36.43,36.43,0,0,1-19.85-20.12,40.87,40.87,0,0,1,0-30.09,37.34,37.34,0,0,1,7.92-12.05,37,37,0,0,1,11.93-8,39.43,39.43,0,0,1,29.83,0,37,37,0,0,1,11.93,8,37.34,37.34,0,0,1,7.92,12.05,40.87,40.87,0,0,1,0,30.09,36.43,36.43,0,0,1-19.85,20.12A37.61,37.61,0,0,1,365.31,270.33Zm0-15.4a19.22,19.22,0,0,0,8.57-1.85,19.55,19.55,0,0,0,6.46-5,22.38,22.38,0,0,0,4.06-7.27,28.07,28.07,0,0,0,0-17.57,21.83,21.83,0,0,0-4.06-7.22,19.38,19.38,0,0,0-6.46-4.87,19.76,19.76,0,0,0-8.57-1.79,20.12,20.12,0,0,0-8.62,1.79,19.18,19.18,0,0,0-6.51,4.87,21.83,21.83,0,0,0-4.06,7.22,28.07,28.07,0,0,0,0,17.57,22.38,22.38,0,0,0,4.06,7.27,19.34,19.34,0,0,0,6.51,5A19.57,19.57,0,0,0,365.31,254.93Z"/><path class="cls-1" d="M484.73,196.14H501.1V225l24.19-28.85h19l-24.84,28.2,28.2,44.15H527.78l-19.3-31.56-7.38,8.24v23.32H484.73Z"/><path class="cls-1" d="M626.16,196.14h49.45v14.32H642.53v14.1h25.71v13.88H642.53v15.62H678v14.43H626.16Z"/></svg>