<svg id="Layer_1" data-name="Layer 1" xmlns="http://www.w3.org/2000/svg" viewBox="0 0 720 720"><defs><style>.cls-1{fill:#98cb51;}</style></defs><path class="cls-1" d="M99.55,348.63a30.68,30.68,0,0,0-.36-6.52,13.59,13.59,0,0,0-1.81-5,9.48,9.48,0,0,0-3.4-3.26,11.48,11.48,0,0,0-5.22-1.33,9.43,9.43,0,0,0-4.2.7,9.77,9.77,0,0,0-4.93,4.6,13.2,13.2,0,0,0-1,2.44,7.27,7.27,0,0,0-.7-1.79,8,8,0,0,0-1.57-2.05,10.66,10.66,0,0,0-2.45-1.72,7.92,7.92,0,0,0-3.35-.83,11,11,0,0,0-4,.56,8.42,8.42,0,0,0-3.42,2.2,12,12,0,0,0-2.48,4.1A19.74,19.74,0,0,0,59.62,347L59,362l39.93,1.65Zm-24.2,5.18-9-.37.22-5.33a8.85,8.85,0,0,1,.29-1.94,5,5,0,0,1,.79-1.73,3.79,3.79,0,0,1,1.42-1.2,4.43,4.43,0,0,1,2.21-.39,4.25,4.25,0,0,1,2.11.57,4,4,0,0,1,1.32,1.28,5.14,5.14,0,0,1,.68,1.77,9,9,0,0,1,.16,2Zm17.24-5.17-.24,5.87-10.42-.43.24-5.86a13.38,13.38,0,0,1,.3-2.21,7.32,7.32,0,0,1,.87-2.18A4.77,4.77,0,0,1,85,342.21a4.82,4.82,0,0,1,2.66-.55,5,5,0,0,1,2.79.81,4.65,4.65,0,0,1,1.48,1.77,6.46,6.46,0,0,1,.6,2.24A16.34,16.34,0,0,1,92.59,348.64Z"/><path class="cls-1" d="M97,259.1a13.21,13.21,0,0,0-5.91-3.77,13.56,13.56,0,0,0-4.88-.7,10.88,10.88,0,0,0-4.62,1.25,12.63,12.63,0,0,0-3.94,3.33,17.34,17.34,0,0,0-2.87,5.49l-4.68,14.1L108,291.39,110.8,283,96.86,278.4l1.59-4.77,16.27-2.43,3.14-9.44-18,3.38A12.58,12.58,0,0,0,97,259.1Zm-5.25,11.73L90,276.12l-10.06-3.34,1.75-5.29a5.35,5.35,0,0,1,2.62-3.3,5.26,5.26,0,0,1,4.14-.14,5.05,5.05,0,0,1,3.31,6.78Z"/><path class="cls-1" d="M147.89,210.17a20.8,20.8,0,0,0,3.44-7.66,20.07,20.07,0,0,0-2.74-15.37A22.54,22.54,0,0,0,135,177.53a20.55,20.55,0,0,0-8-.27,20.32,20.32,0,0,0-7.43,2.82,21.79,21.79,0,0,0-9.52,13.45,20.1,20.1,0,0,0,2.72,15.35,22.56,22.56,0,0,0,13.57,9.61,20.06,20.06,0,0,0,15.4-2.53A20.76,20.76,0,0,0,147.89,210.17Zm-5-9.37a10.7,10.7,0,0,1-1.9,4.45,10.85,10.85,0,0,1-3.58,3.3,10.51,10.51,0,0,1-4.33,1.34,12.43,12.43,0,0,1-4.58-.48,15.52,15.52,0,0,1-7.92-5.61,11.92,11.92,0,0,1-2-4.13,10.48,10.48,0,0,1-.13-4.5,11.18,11.18,0,0,1,2-4.46,10.9,10.9,0,0,1,3.54-3.29,10.53,10.53,0,0,1,4.26-1.35,11.89,11.89,0,0,1,4.55.47,14.81,14.81,0,0,1,4.41,2.16,15.11,15.11,0,0,1,3.51,3.44,12.42,12.42,0,0,1,2,4.16A10.65,10.65,0,0,1,142.85,200.8Z"/><polygon class="cls-1" points="196.06 157.2 188.21 146.98 188.67 140.89 207.75 148.22 216.45 141.54 189.24 131.69 190.63 110.98 182.31 117.36 181.43 138.14 171.72 125.5 164.54 131.01 188.89 162.71 196.06 157.2"/><polygon class="cls-1" points="278.81 111.74 275.89 104.32 257.66 111.49 254.5 103.46 267.72 98.27 264.91 91.13 251.7 96.32 248.85 89.07 265.86 82.39 262.96 75.03 237.53 85.02 252.15 122.21 278.81 111.74"/><polygon class="cls-1" points="328.8 101.02 326.52 74.69 346.46 99.49 354.64 98.78 351.2 58.97 342.31 59.74 344.54 85.58 325.06 61.23 316.46 61.97 319.9 101.79 328.8 101.02"/><path class="cls-1" d="M448.55,113.39a22.16,22.16,0,0,0,3.55,3,23.41,23.41,0,0,0,4.84,2.57,18.8,18.8,0,0,0,5.93,1.4,15.39,15.39,0,0,0,5.48-.59,12.76,12.76,0,0,0,4.51-2.45,10.48,10.48,0,0,0,3-4.16,12.5,12.5,0,0,0,1.05-5.29,11.36,11.36,0,0,0-1.12-4.43,14.22,14.22,0,0,0-2.62-3.68,27.26,27.26,0,0,0-3.47-3A20.85,20.85,0,0,1,465,92.65a3.73,3.73,0,0,1-.76-3.86,2.6,2.6,0,0,1,1-1.19,4,4,0,0,1,1.56-.66,6.65,6.65,0,0,1,1.85-.13,6.3,6.3,0,0,1,1.87.44,10.28,10.28,0,0,1,2.39,1.35,14.08,14.08,0,0,1,1.86,1.72,14.33,14.33,0,0,1,1.36,1.82c.38.6.71,1.15,1,1.65l7-3.38c-.2-.46-.51-1.12-.92-2a13.92,13.92,0,0,0-1.83-2.68,19,19,0,0,0-3.13-2.88,20.8,20.8,0,0,0-4.76-2.61,18.89,18.89,0,0,0-6.34-1.5,13.31,13.31,0,0,0-5.24.79,11.09,11.09,0,0,0-4,2.62,12.48,12.48,0,0,0-2.61,4,10.28,10.28,0,0,0,0,8,13.28,13.28,0,0,0,2.19,3.54,18.66,18.66,0,0,0,3.33,3,29.2,29.2,0,0,1,5.42,4.81,3.8,3.8,0,0,1,.71,4,3.29,3.29,0,0,1-1.16,1.5,4.59,4.59,0,0,1-1.76.77,6.39,6.39,0,0,1-2.05.11,7.32,7.32,0,0,1-2-.48,11.57,11.57,0,0,1-2.86-1.65,13.29,13.29,0,0,1-2.17-2.13,15.27,15.27,0,0,1-1.57-2.35,18,18,0,0,1-1.06-2.27l-7.74,3.65a19.09,19.09,0,0,0,1.6,3.3A19.93,19.93,0,0,0,448.55,113.39Z"/><path class="cls-1" d="M524.24,139.63l4.88,3.77a16.05,16.05,0,0,0,4.59,2.49,13,13,0,0,0,4.94.71,11.52,11.52,0,0,0,4.85-1.37,13.54,13.54,0,0,0,4.34-3.8,14.67,14.67,0,0,0,2.32-4.34,10.94,10.94,0,0,0,.52-4.78,12.38,12.38,0,0,0-1.7-4.91,16.84,16.84,0,0,0-4.36-4.74l-11.52-8.9-24.44,31.62,7,5.39ZM535.56,125l4.12,3.19a5.23,5.23,0,0,1,2.21,3.71,5.78,5.78,0,0,1-1.32,4.16,5.5,5.5,0,0,1-3.6,2.25,5.28,5.28,0,0,1-4.09-1.22l-4.17-3.23Z"/><path class="cls-1" d="M606.4,207.58a20.61,20.61,0,0,0,2.86-7.42,20.27,20.27,0,0,0-.23-7.94,21.73,21.73,0,0,0-9.59-13.4A20.11,20.11,0,0,0,592,176a20.36,20.36,0,0,0-8,.31A22.62,22.62,0,0,0,570.52,186a20.12,20.12,0,0,0-2.65,15.38,20.83,20.83,0,0,0,3.48,7.64,20.61,20.61,0,0,0,6.11,5.76,20.1,20.1,0,0,0,15.42,2.45,22.57,22.57,0,0,0,13.52-9.68Zm-5.84-9.23a12,12,0,0,1-1.93,4.15,15.52,15.52,0,0,1-7.89,5.64,12.43,12.43,0,0,1-4.58.51,10.56,10.56,0,0,1-7.9-4.55,10.89,10.89,0,0,1-1.94-4.47,10.74,10.74,0,0,1,.15-4.52,12.23,12.23,0,0,1,2-4.17,14.86,14.86,0,0,1,3.49-3.45,15.13,15.13,0,0,1,4.4-2.2,12.09,12.09,0,0,1,4.55-.49,10.63,10.63,0,0,1,4.28,1.36,11.17,11.17,0,0,1,3.58,3.3,11,11,0,0,1,1.95,4.42A10.51,10.51,0,0,1,600.56,198.35Z"/><polygon class="cls-1" points="605.57 271.94 617.8 267.9 623.4 270.34 610.18 285.93 613.62 296.35 631.9 273.91 650.99 282.06 647.71 272.1 628.38 264.41 643.52 259.41 640.68 250.82 602.73 263.35 605.57 271.94"/><polygon class="cls-1" points="659.96 334.96 620.03 336.48 621.11 365.1 629.08 364.79 628.33 345.21 636.96 344.89 637.49 359.08 645.16 358.79 644.62 344.6 652.4 344.3 653.1 362.56 661 362.26 659.96 334.96"/><path class="cls-1" d="M177.54,546.5a20.33,20.33,0,0,0-6.94-4.65,19.08,19.08,0,0,0-15.11.32A23.17,23.17,0,0,0,144,553.66a18.65,18.65,0,0,0-.13,14.91,21.08,21.08,0,0,0,4.67,6.8,20.29,20.29,0,0,0,4.11,3.19,21.39,21.39,0,0,0,4.5,2,20.51,20.51,0,0,0,4.58.9,17.36,17.36,0,0,0,4.35-.15l-.38-8.12c-.88,0-1.77.09-2.66.1a10.4,10.4,0,0,1-2.7-.3,11.14,11.14,0,0,1-2.77-1.11,13.86,13.86,0,0,1-2.89-2.27,10.87,10.87,0,0,1-2.6-3.92,10.38,10.38,0,0,1-.67-4.29,11.55,11.55,0,0,1,1.13-4.31,14.82,14.82,0,0,1,6.74-6.75,12.06,12.06,0,0,1,4.37-1.2,10.42,10.42,0,0,1,4.4.63,11.28,11.28,0,0,1,4,2.66,10.63,10.63,0,0,1,3,5.09,14.38,14.38,0,0,1,.15,5.71l8.33.16a17.88,17.88,0,0,0-.73-8.81A21.43,21.43,0,0,0,177.54,546.5Z"/><polygon class="cls-1" points="225.84 601.95 225.61 584.99 216.89 580.13 217.8 606.55 209.88 620.77 217.67 625.12 225.63 610.85 248.54 597.77 240.19 593.11 225.84 601.95"/><path class="cls-1" d="M285.76,626.56a12,12,0,0,1,3.13-3.28,10.06,10.06,0,0,1,4.09-1.72,11.18,11.18,0,0,1,4.82.2,10.56,10.56,0,0,1,5.19,2.82,14.46,14.46,0,0,1,3.07,4.82l7.23-4.16a17.93,17.93,0,0,0-5.17-7.17,21.34,21.34,0,0,0-8.72-4.21,20.49,20.49,0,0,0-8.34-.42,19.37,19.37,0,0,0-7.23,2.72,19.66,19.66,0,0,0-5.57,5.35A22.47,22.47,0,0,0,274.9,629a22,22,0,0,0-.54,8.25,19.08,19.08,0,0,0,2.44,7.22,18.8,18.8,0,0,0,5.13,5.63,21.83,21.83,0,0,0,12.67,4,21.7,21.7,0,0,0,4.9-.59,20.13,20.13,0,0,0,4.39-1.59,18.32,18.32,0,0,0,3.65-2.36L303,642.84c-.73.5-1.47,1-2.23,1.46a10.88,10.88,0,0,1-2.47,1.13,11.17,11.17,0,0,1-2.94.47,13.59,13.59,0,0,1-3.65-.46,11,11,0,0,1-4.25-2,10.48,10.48,0,0,1-2.78-3.34,11.39,11.39,0,0,1-1.25-4.28,14.32,14.32,0,0,1,.39-4.83A14.14,14.14,0,0,1,285.76,626.56Z"/><polygon class="cls-1" points="363.29 653.01 362.57 621.92 353.76 622.13 354.67 661.03 382.08 660.39 381.9 652.58 363.29 653.01"/><rect class="cls-1" x="425.26" y="613.23" width="8.81" height="38.92" transform="translate(-142.81 125.56) rotate(-14.28)"/><polygon class="cls-1" points="491.16 586.91 503.13 609.16 476.31 594.9 468.91 598.88 487.34 633.15 495 629.04 482.81 606.38 510.21 620.86 517.25 617.07 498.82 582.8 491.16 586.91"/><path class="cls-1" d="M558.84,556.33l5,5,4.88-4.85,3.45,3.48a9.57,9.57,0,0,1-1.18,3.68,15.26,15.26,0,0,1-2.64,3.4,11.86,11.86,0,0,1-3.91,2.64,10.84,10.84,0,0,1-4.37.85,11.1,11.1,0,0,1-4.47-1,13.9,13.9,0,0,1-4.2-3,15.07,15.07,0,0,1-2.87-4,11.73,11.73,0,0,1-1.23-4.38,10.68,10.68,0,0,1,.64-4.41,11.17,11.17,0,0,1,2.7-4.08,10.15,10.15,0,0,1,4.9-2.88,17.26,17.26,0,0,1,5.46-.34l.24-8.2a18,18,0,0,0-8.54.79,20.82,20.82,0,0,0-8,5.17,20.49,20.49,0,0,0-4.69,6.87,19.18,19.18,0,0,0-1.45,7.56,19.39,19.39,0,0,0,1.64,7.54,22,22,0,0,0,4.68,6.78,23.69,23.69,0,0,0,6.77,4.88,17.9,17.9,0,0,0,7.35,1.74,18.3,18.3,0,0,0,7.48-1.54,23.11,23.11,0,0,0,7.11-5,27.78,27.78,0,0,0,5.56-7.53,21.63,21.63,0,0,0,2.17-7.87l-11.88-12Z"/><circle class="cls-1" cx="610.85" cy="461.29" r="8.71"/><circle class="cls-1" cx="99.3" cy="461.29" r="8.71"/></svg>